<?xml version="1.0" encoding="UTF-8"?>
<svg xmlns="http://www.w3.org/2000/svg" xmlns:xlink="http://www.w3.org/1999/xlink" viewBox="0 0 32 32" width="32px" height="32px">
<g id="surface21617414">
<rect x="0" y="0" width="32" height="32" style="fill:rgb(3.921569%,9.803922%,18.431373%);fill-opacity:1;stroke:none;"/>
<path style=" stroke:none;fill-rule:nonzero;fill:rgb(3.921569%,9.803922%,18.431373%);fill-opacity:1;" d="M 5 5 L 5 27 L 27 27 L 27 5 Z M 7 7 L 25 7 L 25 25 L 7 25 Z M 20.246094 15 C 18.820312 15 17.898438 15.914062 17.898438 17.117188 C 17.898438 18.429688 18.667969 19.058594 19.828125 19.550781 L 20.226562 19.722656 C 20.957031 20.046875 21.394531 20.234375 21.394531 20.785156 C 21.394531 21.25 20.96875 21.585938 20.304688 21.585938 C 19.515625 21.585938 19.066406 21.167969 18.726562 20.605469 L 17.414062 21.355469 C 17.878906 22.285156 18.847656 23 20.339844 23 C 21.859375 23 23 22.210938 23 20.765625 C 23 19.417969 22.230469 18.820312 20.863281 18.242188 L 20.464844 18.066406 C 19.769531 17.765625 19.476562 17.566406 19.476562 17.089844 C 19.476562 16.699219 19.769531 16.394531 20.246094 16.394531 C 20.710938 16.394531 21.003906 16.597656 21.277344 17.089844 L 22.535156 16.28125 C 22.003906 15.351562 21.269531 15 20.242188 15 Z M 14.394531 15.09375 L 14.394531 20.558594 C 14.394531 21.355469 14.050781 21.5625 13.527344 21.5625 C 12.976562 21.5625 12.742188 21.183594 12.496094 20.738281 L 11.183594 21.527344 C 11.5625 22.335938 12.3125 23 13.597656 23 C 15.019531 23 16 22.238281 16 20.574219 L 16 15.09375 Z M 14.394531 15.09375 "/>
<path style=" stroke:none;fill-rule:nonzero;fill:rgb(80.000001%,80.000001%,80.000001%);fill-opacity:1;" d="M 3.292969 17.234375 C 2.722656 17.234375 2.253906 17.042969 1.894531 16.667969 C 1.535156 16.292969 1.355469 15.789062 1.355469 15.15625 L 1.355469 15.027344 C 1.355469 14.605469 1.4375 14.230469 1.597656 13.902344 C 1.757812 13.574219 1.980469 13.3125 2.269531 13.128906 C 2.558594 12.941406 2.867188 12.847656 3.203125 12.847656 C 3.753906 12.847656 4.179688 13.03125 4.484375 13.390625 C 4.789062 13.753906 4.941406 14.273438 4.941406 14.949219 L 4.941406 15.246094 L 2.078125 15.246094 C 2.089844 15.664062 2.210938 16 2.445312 16.257812 C 2.679688 16.515625 2.972656 16.644531 3.332031 16.644531 C 3.589844 16.644531 3.804688 16.589844 3.980469 16.488281 C 4.160156 16.382812 4.3125 16.242188 4.445312 16.070312 L 4.886719 16.414062 C 4.535156 16.960938 4.003906 17.234375 3.292969 17.234375 Z M 3.203125 13.441406 C 2.914062 13.441406 2.667969 13.550781 2.46875 13.761719 C 2.273438 13.972656 2.148438 14.273438 2.101562 14.652344 L 4.21875 14.652344 L 4.21875 14.601562 C 4.199219 14.234375 4.101562 13.949219 3.921875 13.746094 C 3.746094 13.542969 3.507812 13.441406 3.203125 13.441406 Z M 6.273438 12.925781 L 7.195312 14.472656 L 8.132812 12.925781 L 8.980469 12.925781 L 7.59375 15.019531 L 9.019531 17.15625 L 8.183594 17.15625 L 7.207031 15.574219 L 6.234375 17.15625 L 5.390625 17.15625 L 6.820312 15.019531 L 5.433594 12.925781 Z M 13.3125 15.023438 L 13.3125 15.085938 C 13.3125 15.730469 13.167969 16.25 12.871094 16.644531 C 12.578125 17.035156 12.179688 17.234375 11.675781 17.234375 C 11.164062 17.234375 10.761719 17.070312 10.46875 16.746094 L 10.46875 18.777344 L 9.742188 18.777344 L 9.742188 12.925781 L 10.402344 12.925781 L 10.4375 13.394531 C 10.734375 13.03125 11.140625 12.847656 11.664062 12.847656 C 12.171875 12.847656 12.574219 13.039062 12.871094 13.425781 C 13.164062 13.808594 13.3125 14.339844 13.3125 15.023438 Z M 12.589844 15.003906 C 12.589844 14.53125 12.488281 14.152344 12.285156 13.875 C 12.082031 13.601562 11.804688 13.464844 11.449219 13.464844 C 11.011719 13.464844 10.683594 13.65625 10.46875 14.046875 L 10.46875 16.0625 C 10.683594 16.449219 11.011719 16.644531 11.457031 16.644531 C 11.804688 16.644531 12.078125 16.503906 12.285156 16.230469 C 12.488281 15.957031 12.589844 15.546875 12.589844 15.003906 Z M 16.273438 12.90625 L 16.273438 13.578125 C 16.164062 13.558594 16.046875 13.550781 15.921875 13.550781 C 15.445312 13.550781 15.125 13.75 14.953125 14.15625 L 14.953125 17.15625 L 14.234375 17.15625 L 14.234375 12.925781 L 14.9375 12.925781 L 14.945312 13.417969 C 15.183594 13.039062 15.519531 12.847656 15.957031 12.847656 C 16.09375 12.847656 16.203125 12.867188 16.273438 12.90625 Z M 18.617188 17.234375 C 18.046875 17.234375 17.582031 17.042969 17.21875 16.667969 C 16.859375 16.292969 16.679688 15.789062 16.679688 15.15625 L 16.679688 15.027344 C 16.679688 14.605469 16.761719 14.230469 16.921875 13.902344 C 17.082031 13.574219 17.304688 13.3125 17.59375 13.128906 C 17.878906 12.941406 18.191406 12.847656 18.527344 12.847656 C 19.078125 12.847656 19.503906 13.03125 19.808594 13.390625 C 20.113281 13.753906 20.265625 14.273438 20.265625 14.949219 L 20.265625 15.246094 L 17.402344 15.246094 C 17.414062 15.664062 17.535156 16 17.769531 16.257812 C 18.003906 16.515625 18.296875 16.644531 18.65625 16.644531 C 18.914062 16.644531 19.128906 16.589844 19.304688 16.488281 C 19.484375 16.382812 19.636719 16.242188 19.769531 16.070312 L 20.210938 16.414062 C 19.859375 16.960938 19.328125 17.234375 18.617188 17.234375 Z M 18.527344 13.441406 C 18.238281 13.441406 17.992188 13.550781 17.792969 13.761719 C 17.597656 13.972656 17.472656 14.273438 17.425781 14.652344 L 19.542969 14.652344 L 19.542969 14.601562 C 19.523438 14.234375 19.425781 13.949219 19.246094 13.746094 C 19.070312 13.542969 18.832031 13.441406 18.527344 13.441406 Z M 23.566406 16.03125 C 23.566406 15.835938 23.492188 15.6875 23.34375 15.578125 C 23.195312 15.46875 22.9375 15.378906 22.574219 15.300781 C 22.207031 15.222656 21.917969 15.128906 21.703125 15.019531 C 21.488281 14.910156 21.328125 14.777344 21.226562 14.628906 C 21.125 14.476562 21.070312 14.296875 21.070312 14.089844 C 21.070312 13.742188 21.21875 13.449219 21.511719 13.207031 C 21.804688 12.96875 22.179688 12.847656 22.632812 12.847656 C 23.113281 12.847656 23.503906 12.972656 23.800781 13.222656 C 24.097656 13.46875 24.246094 13.785156 24.246094 14.171875 L 23.519531 14.171875 C 23.519531 13.972656 23.4375 13.800781 23.269531 13.660156 C 23.101562 13.515625 22.890625 13.441406 22.632812 13.441406 C 22.371094 13.441406 22.164062 13.5 22.015625 13.617188 C 21.867188 13.730469 21.792969 13.878906 21.792969 14.0625 C 21.792969 14.238281 21.863281 14.371094 22 14.457031 C 22.140625 14.546875 22.390625 14.632812 22.75 14.714844 C 23.109375 14.792969 23.402344 14.890625 23.625 15 C 23.851562 15.113281 24.015625 15.25 24.125 15.40625 C 24.234375 15.5625 24.285156 15.753906 24.285156 15.980469 C 24.285156 16.359375 24.136719 16.664062 23.832031 16.890625 C 23.53125 17.117188 23.140625 17.234375 22.65625 17.234375 C 22.316406 17.234375 22.019531 17.171875 21.761719 17.050781 C 21.5 16.933594 21.296875 16.765625 21.148438 16.550781 C 21 16.335938 20.925781 16.101562 20.925781 15.855469 L 21.648438 15.855469 C 21.664062 16.097656 21.757812 16.289062 21.941406 16.429688 C 22.121094 16.570312 22.359375 16.644531 22.65625 16.644531 C 22.929688 16.644531 23.148438 16.585938 23.316406 16.476562 C 23.480469 16.367188 23.566406 16.21875 23.566406 16.03125 Z M 27.6875 16.03125 C 27.6875 15.835938 27.617188 15.6875 27.46875 15.578125 C 27.320312 15.46875 27.0625 15.378906 26.699219 15.300781 C 26.332031 15.222656 26.042969 15.128906 25.828125 15.019531 C 25.613281 14.910156 25.453125 14.777344 25.351562 14.628906 C 25.246094 14.476562 25.195312 14.296875 25.195312 14.089844 C 25.195312 13.742188 25.34375 13.449219 25.636719 13.207031 C 25.929688 12.96875 26.304688 12.847656 26.757812 12.847656 C 27.238281 12.847656 27.625 12.972656 27.925781 13.222656 C 28.222656 13.46875 28.371094 13.785156 28.371094 14.171875 L 27.648438 14.171875 C 27.648438 13.972656 27.5625 13.800781 27.394531 13.660156 C 27.226562 13.515625 27.015625 13.441406 26.757812 13.441406 C 26.496094 13.441406 26.289062 13.5 26.140625 13.617188 C 25.992188 13.730469 25.921875 13.878906 25.921875 14.0625 C 25.921875 14.238281 25.988281 14.371094 26.125 14.457031 C 26.265625 14.546875 26.511719 14.632812 26.875 14.714844 C 27.234375 14.792969 27.527344 14.890625 27.75 15 C 27.976562 15.113281 28.140625 15.25 28.25 15.40625 C 28.355469 15.5625 28.410156 15.753906 28.410156 15.980469 C 28.410156 16.359375 28.261719 16.664062 27.960938 16.890625 C 27.65625 17.117188 27.265625 17.234375 26.785156 17.234375 C 26.445312 17.234375 26.144531 17.171875 25.882812 17.050781 C 25.625 16.933594 25.421875 16.765625 25.273438 16.550781 C 25.125 16.335938 25.050781 16.101562 25.050781 15.855469 L 25.773438 15.855469 C 25.789062 16.097656 25.882812 16.289062 26.066406 16.429688 C 26.246094 16.570312 26.484375 16.644531 26.785156 16.644531 C 27.054688 16.644531 27.273438 16.585938 27.441406 16.476562 C 27.605469 16.367188 27.6875 16.21875 27.6875 16.03125 Z M 27.6875 16.03125 "/>
</g>
</svg>
