<?xml version="1.0" encoding="UTF-8"?>
<svg xmlns="http://www.w3.org/2000/svg" xmlns:xlink="http://www.w3.org/1999/xlink" viewBox="0 0 32 32" width="32px" height="32px">
<g id="surface21609812">
<rect x="0" y="0" width="32" height="32" style="fill:rgb(3.921569%,9.803922%,18.431373%);fill-opacity:1;stroke:none;"/>
<path style=" stroke:none;fill-rule:nonzero;fill:rgb(53.333336%,57.254905%,69.01961%);fill-opacity:1;" d="M 5 5 L 5 27 L 27 27 L 27 5 Z M 7 7 L 25 7 L 25 25 L 7 25 Z M 20.246094 15 C 18.820312 15 17.898438 15.914062 17.898438 17.117188 C 17.898438 18.429688 18.667969 19.058594 19.828125 19.550781 L 20.226562 19.722656 C 20.957031 20.046875 21.394531 20.234375 21.394531 20.785156 C 21.394531 21.25 20.96875 21.585938 20.304688 21.585938 C 19.515625 21.585938 19.066406 21.167969 18.726562 20.605469 L 17.414062 21.355469 C 17.878906 22.285156 18.847656 23 20.339844 23 C 21.859375 23 23 22.210938 23 20.765625 C 23 19.417969 22.230469 18.820312 20.863281 18.242188 L 20.464844 18.066406 C 19.769531 17.765625 19.476562 17.566406 19.476562 17.089844 C 19.476562 16.699219 19.769531 16.394531 20.246094 16.394531 C 20.710938 16.394531 21.003906 16.597656 21.277344 17.089844 L 22.535156 16.28125 C 22.003906 15.351562 21.269531 15 20.242188 15 Z M 14.394531 15.09375 L 14.394531 20.558594 C 14.394531 21.355469 14.050781 21.5625 13.527344 21.5625 C 12.976562 21.5625 12.742188 21.183594 12.496094 20.738281 L 11.183594 21.527344 C 11.5625 22.335938 12.3125 23 13.597656 23 C 15.019531 23 16 22.238281 16 20.574219 L 16 15.09375 Z M 14.394531 15.09375 "/>
</g>
</svg>
