<?xml version="1.0" encoding="UTF-8"?>
<svg xmlns="http://www.w3.org/2000/svg" xmlns:xlink="http://www.w3.org/1999/xlink" viewBox="0 0 32 32" width="32px" height="32px">
<g id="surface21024816">
<rect x="0" y="0" width="32" height="32" style="fill:rgb(3.921569%,9.803922%,18.431373%);fill-opacity:1;stroke:none;"/>
<path style=" stroke:none;fill-rule:nonzero;fill:rgb(3.921569%,9.803922%,18.431373%);fill-opacity:1;" d="M 5 5 L 5 27 L 27 27 L 27 5 Z M 7 7 L 25 7 L 25 25 L 7 25 Z M 20.246094 15 C 18.820312 15 17.898438 15.914062 17.898438 17.117188 C 17.898438 18.429688 18.667969 19.058594 19.828125 19.550781 L 20.226562 19.722656 C 20.957031 20.046875 21.394531 20.234375 21.394531 20.785156 C 21.394531 21.25 20.96875 21.585938 20.304688 21.585938 C 19.515625 21.585938 19.066406 21.167969 18.726562 20.605469 L 17.414062 21.355469 C 17.878906 22.285156 18.847656 23 20.339844 23 C 21.859375 23 23 22.210938 23 20.765625 C 23 19.417969 22.230469 18.820312 20.863281 18.242188 L 20.464844 18.066406 C 19.769531 17.765625 19.476562 17.566406 19.476562 17.089844 C 19.476562 16.699219 19.769531 16.394531 20.246094 16.394531 C 20.710938 16.394531 21.003906 16.597656 21.277344 17.089844 L 22.535156 16.28125 C 22.003906 15.351562 21.269531 15 20.242188 15 Z M 14.394531 15.09375 L 14.394531 20.558594 C 14.394531 21.355469 14.050781 21.5625 13.527344 21.5625 C 12.976562 21.5625 12.742188 21.183594 12.496094 20.738281 L 11.183594 21.527344 C 11.5625 22.335938 12.3125 23 13.597656 23 C 15.019531 23 16 22.238281 16 20.574219 L 16 15.09375 Z M 14.394531 15.09375 "/>
<path style=" stroke:none;fill-rule:nonzero;fill:rgb(53.333336%,57.254905%,69.01961%);fill-opacity:1;" d="M 3.0625 17.582031 C 2.421875 17.582031 1.902344 17.371094 1.5 16.953125 C 1.101562 16.535156 0.898438 15.972656 0.898438 15.265625 L 0.898438 15.121094 C 0.898438 14.652344 0.988281 14.234375 1.167969 13.867188 C 1.347656 13.496094 1.597656 13.210938 1.917969 13.003906 C 2.238281 12.792969 2.585938 12.691406 2.960938 12.691406 C 3.574219 12.691406 4.050781 12.890625 4.390625 13.296875 C 4.734375 13.699219 4.902344 14.28125 4.902344 15.03125 L 4.902344 15.367188 L 1.707031 15.367188 C 1.71875 15.832031 1.855469 16.207031 2.113281 16.496094 C 2.375 16.78125 2.703125 16.925781 3.105469 16.925781 C 3.390625 16.925781 3.632812 16.867188 3.828125 16.75 C 4.027344 16.632812 4.199219 16.480469 4.347656 16.289062 L 4.84375 16.671875 C 4.445312 17.28125 3.851562 17.582031 3.0625 17.582031 Z M 2.960938 13.351562 C 2.636719 13.351562 2.363281 13.472656 2.140625 13.707031 C 1.921875 13.945312 1.785156 14.277344 1.734375 14.707031 L 4.097656 14.707031 L 4.097656 14.644531 C 4.070312 14.234375 3.960938 13.917969 3.765625 13.691406 C 3.566406 13.464844 3.300781 13.351562 2.960938 13.351562 Z M 6.382812 12.777344 L 7.417969 14.5 L 8.464844 12.777344 L 9.40625 12.777344 L 7.863281 15.109375 L 9.453125 17.496094 L 8.523438 17.496094 L 7.429688 15.730469 L 6.339844 17.496094 L 5.402344 17.496094 L 6.996094 15.109375 L 5.453125 12.777344 Z M 14.246094 15.113281 L 14.246094 15.1875 C 14.246094 15.90625 14.082031 16.484375 13.753906 16.925781 C 13.425781 17.363281 12.980469 17.582031 12.417969 17.582031 C 11.847656 17.582031 11.394531 17.402344 11.070312 17.039062 L 11.070312 19.308594 L 10.261719 19.308594 L 10.261719 12.777344 L 11 12.777344 L 11.039062 13.300781 C 11.367188 12.894531 11.824219 12.691406 12.40625 12.691406 C 12.972656 12.691406 13.421875 12.902344 13.75 13.332031 C 14.082031 13.757812 14.246094 14.351562 14.246094 15.113281 Z M 13.441406 15.097656 C 13.441406 14.566406 13.328125 14.144531 13.101562 13.839844 C 12.875 13.53125 12.5625 13.375 12.167969 13.375 C 11.679688 13.375 11.3125 13.589844 11.070312 14.023438 L 11.070312 16.277344 C 11.308594 16.710938 11.679688 16.925781 12.175781 16.925781 C 12.5625 16.925781 12.871094 16.769531 13.097656 16.464844 C 13.328125 16.15625 13.441406 15.703125 13.441406 15.097656 Z M 17.550781 12.75 L 17.550781 13.5 C 17.429688 13.480469 17.296875 13.472656 17.15625 13.472656 C 16.625 13.472656 16.269531 13.695312 16.078125 14.148438 L 16.078125 17.496094 L 15.273438 17.496094 L 15.273438 12.777344 L 16.058594 12.777344 L 16.070312 13.324219 C 16.332031 12.902344 16.710938 12.691406 17.195312 12.691406 C 17.351562 12.691406 17.46875 12.710938 17.550781 12.75 Z M 20.167969 17.582031 C 19.527344 17.582031 19.007812 17.371094 18.609375 16.953125 C 18.207031 16.535156 18.007812 15.972656 18.007812 15.265625 L 18.007812 15.121094 C 18.007812 14.652344 18.097656 14.234375 18.273438 13.867188 C 18.453125 13.496094 18.703125 13.210938 19.023438 13.003906 C 19.34375 12.792969 19.691406 12.691406 20.066406 12.691406 C 20.683594 12.691406 21.160156 12.890625 21.5 13.296875 C 21.839844 13.699219 22.007812 14.28125 22.007812 15.03125 L 22.007812 15.367188 L 18.8125 15.367188 C 18.824219 15.832031 18.960938 16.207031 19.21875 16.496094 C 19.480469 16.78125 19.808594 16.925781 20.210938 16.925781 C 20.496094 16.925781 20.738281 16.867188 20.9375 16.75 C 21.132812 16.632812 21.304688 16.480469 21.453125 16.289062 L 21.945312 16.671875 C 21.550781 17.28125 20.960938 17.582031 20.167969 17.582031 Z M 20.066406 13.351562 C 19.742188 13.351562 19.46875 13.472656 19.246094 13.707031 C 19.027344 13.945312 18.890625 14.277344 18.839844 14.707031 L 21.199219 14.707031 L 21.199219 14.644531 C 21.179688 14.234375 21.066406 13.917969 20.871094 13.691406 C 20.671875 13.464844 20.40625 13.351562 20.066406 13.351562 Z M 25.6875 16.242188 C 25.6875 16.027344 25.605469 15.855469 25.441406 15.734375 C 25.277344 15.617188 24.992188 15.511719 24.582031 15.425781 C 24.175781 15.335938 23.851562 15.230469 23.609375 15.109375 C 23.371094 14.988281 23.195312 14.84375 23.078125 14.675781 C 22.964844 14.507812 22.90625 14.304688 22.90625 14.074219 C 22.90625 13.6875 23.070312 13.359375 23.398438 13.09375 C 23.722656 12.824219 24.140625 12.691406 24.648438 12.691406 C 25.1875 12.691406 25.621094 12.828125 25.953125 13.105469 C 26.285156 13.382812 26.449219 13.734375 26.449219 14.164062 L 25.640625 14.164062 C 25.640625 13.941406 25.546875 13.753906 25.359375 13.59375 C 25.171875 13.433594 24.933594 13.351562 24.648438 13.351562 C 24.359375 13.351562 24.128906 13.417969 23.960938 13.546875 C 23.796875 13.671875 23.710938 13.839844 23.710938 14.046875 C 23.710938 14.242188 23.789062 14.386719 23.945312 14.488281 C 24.097656 14.585938 24.378906 14.679688 24.78125 14.769531 C 25.183594 14.859375 25.507812 14.96875 25.757812 15.09375 C 26.007812 15.21875 26.195312 15.367188 26.316406 15.542969 C 26.4375 15.71875 26.496094 15.933594 26.496094 16.1875 C 26.496094 16.609375 26.328125 16.949219 25.988281 17.203125 C 25.652344 17.457031 25.214844 17.582031 24.675781 17.582031 C 24.300781 17.582031 23.964844 17.515625 23.671875 17.382812 C 23.382812 17.25 23.15625 17.0625 22.992188 16.824219 C 22.828125 16.582031 22.746094 16.324219 22.746094 16.042969 L 23.550781 16.042969 C 23.566406 16.316406 23.675781 16.527344 23.875 16.6875 C 24.078125 16.84375 24.34375 16.925781 24.675781 16.925781 C 24.984375 16.925781 25.226562 16.863281 25.410156 16.738281 C 25.597656 16.617188 25.6875 16.449219 25.6875 16.242188 Z M 30.292969 16.242188 C 30.292969 16.027344 30.210938 15.855469 30.046875 15.734375 C 29.882812 15.617188 29.597656 15.511719 29.1875 15.425781 C 28.78125 15.335938 28.457031 15.230469 28.214844 15.109375 C 27.976562 14.988281 27.796875 14.84375 27.683594 14.675781 C 27.570312 14.507812 27.511719 14.304688 27.511719 14.074219 C 27.511719 13.6875 27.675781 13.359375 28.003906 13.09375 C 28.328125 12.824219 28.746094 12.691406 29.253906 12.691406 C 29.789062 12.691406 30.226562 12.828125 30.558594 13.105469 C 30.890625 13.382812 31.054688 13.734375 31.054688 14.164062 L 30.246094 14.164062 C 30.246094 13.941406 30.152344 13.753906 29.964844 13.59375 C 29.777344 13.433594 29.539062 13.351562 29.253906 13.351562 C 28.960938 13.351562 28.734375 13.417969 28.566406 13.546875 C 28.398438 13.671875 28.316406 13.839844 28.316406 14.046875 C 28.316406 14.242188 28.394531 14.386719 28.550781 14.488281 C 28.703125 14.585938 28.980469 14.679688 29.386719 14.769531 C 29.785156 14.859375 30.113281 14.96875 30.363281 15.09375 C 30.613281 15.21875 30.796875 15.367188 30.921875 15.542969 C 31.039062 15.71875 31.101562 15.933594 31.101562 16.1875 C 31.101562 16.609375 30.933594 16.949219 30.59375 17.203125 C 30.257812 17.457031 29.820312 17.582031 29.28125 17.582031 C 28.902344 17.582031 28.570312 17.515625 28.277344 17.382812 C 27.988281 17.25 27.761719 17.0625 27.597656 16.824219 C 27.433594 16.582031 27.351562 16.324219 27.351562 16.042969 L 28.15625 16.042969 C 28.171875 16.316406 28.277344 16.527344 28.480469 16.6875 C 28.683594 16.84375 28.949219 16.925781 29.28125 16.925781 C 29.585938 16.925781 29.832031 16.863281 30.015625 16.738281 C 30.199219 16.617188 30.292969 16.449219 30.292969 16.242188 Z M 30.292969 16.242188 "/>
</g>
</svg>
