<svg xmlns="http://www.w3.org/2000/svg" id="draw.id" overflow="visible" v:layers="{&quot;default&quot;:{&quot;name&quot;:&quot;Default&quot;,&quot;print&quot;:0,&quot;display&quot;:1,&quot;publish&quot;:0},&quot;jx575u50pt&quot;:{&quot;name&quot;:&quot;Untitled layer&quot;,&quot;print&quot;:1,&quot;display&quot;:1,&quot;publish&quot;:1}}" v:ver="3" x="500.5" y="500.5" v:stencils="{&quot;0&quot;:{&quot;id&quot;:&quot;stencil_25&quot;,&quot;expand&quot;:1,&quot;show_name&quot;:1},&quot;1&quot;:{&quot;id&quot;:&quot;stencil_65&quot;,&quot;expand&quot;:1,&quot;show_name&quot;:1}}" xmlns:v="http://vecta.io"><style xmlns="http://www.w3.org/1999/xhtml"><![CDATA[#draw\.id{stroke:#000;stroke-linecap:round;stroke-linejoin:round;fill:#fff;fill-rule:evenodd;font-family:Roboto;font-size:14px;text-anchor:middle}#draw\.id text{paint-order:stroke;white-space:pre}#draw\.id .Text\.cls{stroke:none}]]></style><defs><style type="text/css">@import url('https://fonts.googleapis.com/css?family=Roboto+Condensed:400,400i,700,700i');@import url('https://fonts.googleapis.com/css?family=Roboto:400,400i,700,700i');@import url('https://fonts.googleapis.com/css?family=Cousine:400,400i,700,700i');@import url('https://fonts.googleapis.com/css?family=Anonymous+Pro:400,400i,700,700i');@import url('https://fonts.googleapis.com/css?family=Lato:400,400i,700,700i');@import url('https://fonts.googleapis.com/css?family=Open+Sans:400,400i,700,700i');</style><linearGradient id="L00100100000aaff10000387f.grad" x1="0%" y1="0%" x2="100%" y2="100%"><stop offset="0%" stop-color="#00aaff" stop-opacity="1"/><stop offset="100%" stop-color="#00387f" stop-opacity="1"/></linearGradient><linearGradient id="L001001000808080100000000.grad" x1="0%" y1="0%" x2="100%" y2="100%"><stop offset="0%" stop-color="#808080" stop-opacity="1"/><stop offset="100%" stop-color="#000000" stop-opacity="1"/></linearGradient><linearGradient id="L001001000808080100100000000100.grad" x1="0%" y1="0%" x2="100%" y2="100%"><stop offset="0%" stop-color="#808080" stop-opacity="1"/><stop offset="100%" stop-color="#000000" stop-opacity="1"/></linearGradient><linearGradient id="L001001000f1a9eb100672965.grad" x1="0%" y1="0%" x2="100%" y2="100%"><stop offset="0%" stop-color="#f1a9eb" stop-opacity="1"/><stop offset="100%" stop-color="#672965" stop-opacity="1"/></linearGradient><linearGradient id="L001001000ffd194100d1913c.grad" x1="0%" y1="0%" x2="100%" y2="100%"><stop offset="0%" stop-color="#ffd194"/><stop offset="100%" stop-color="#d1913c"/></linearGradient><linearGradient id="L06710033090a4ae100ECEFF1.grad" x1="0%" y1="67%" x2="100%" y2="33%"><stop offset="0%" stop-color="#90a4ae"/><stop offset="100%" stop-color="#ECEFF1"/></linearGradient><linearGradient id="L0941006090a4ae100B0BEC5.grad" x1="0%" y1="94%" x2="100%" y2="6%"><stop offset="0%" stop-color="#90a4ae"/><stop offset="100%" stop-color="#B0BEC5"/></linearGradient><linearGradient id="L100100000578fff1008ab1ff.grad" x1="100%" y1="100%" x2="0%" y2="0%"><stop offset="0%" stop-color="#578fff"/><stop offset="100%" stop-color="#8ab1ff"/></linearGradient><linearGradient id="L10010000057c7ff1008ad8ff.grad" x1="100%" y1="100%" x2="0%" y2="0%"><stop offset="0%" stop-color="#57c7ff"/><stop offset="100%" stop-color="#8ad8ff"/></linearGradient><linearGradient id="L10010000057ffff1008affff.grad" x1="100%" y1="100%" x2="0%" y2="0%"><stop offset="0%" stop-color="#57ffff"/><stop offset="100%" stop-color="#8affff"/></linearGradient><linearGradient id="L1001000008fff57100b1ff8a.grad" x1="100%" y1="100%" x2="0%" y2="0%"><stop offset="0%" stop-color="#8fff57"/><stop offset="100%" stop-color="#b1ff8a"/></linearGradient><linearGradient id="L100100000c757ff100d88aff.grad" x1="100%" y1="100%" x2="0%" y2="0%"><stop offset="0%" stop-color="#c757ff"/><stop offset="100%" stop-color="#d88aff"/></linearGradient><linearGradient id="L100100000c7ff57100d8ff8a.grad" x1="100%" y1="100%" x2="0%" y2="0%"><stop offset="0%" stop-color="#c7ff57"/><stop offset="100%" stop-color="#d8ff8a"/></linearGradient><linearGradient id="L100100000ff578f100ff8ab1.grad" x1="100%" y1="100%" x2="0%" y2="0%"><stop offset="0%" stop-color="#ff578f"/><stop offset="100%" stop-color="#ff8ab1"/></linearGradient><linearGradient id="L100100000ff57e3100ff8aeb.grad" x1="100%" y1="100%" x2="0%" y2="0%"><stop offset="0%" stop-color="#ff57e3"/><stop offset="100%" stop-color="#ff8aeb"/></linearGradient><linearGradient id="L100100000ff7357100ff9d8a.grad" x1="100%" y1="100%" x2="0%" y2="0%"><stop offset="0%" stop-color="#ff7357"/><stop offset="100%" stop-color="#ff9d8a"/></linearGradient><linearGradient id="L100100000ffab57100ffc48a.grad" x1="100%" y1="100%" x2="0%" y2="0%"><stop offset="0%" stop-color="#ffab57"/><stop offset="100%" stop-color="#ffc48a"/></linearGradient><linearGradient id="L100100000ffe357100ffeb8a.grad" x1="100%" y1="100%" x2="0%" y2="0%"><stop offset="0%" stop-color="#ffe357"/><stop offset="100%" stop-color="#ffeb8a"/></linearGradient><linearGradient id="L100100000ffff57100ffff8a.grad" x1="100%" y1="100%" x2="0%" y2="0%"><stop offset="0%" stop-color="#ffff57"/><stop offset="100%" stop-color="#ffff8a"/></linearGradient><linearGradient id="L170831000E0E0E0100757575.grad" x1="17%" y1="0%" x2="83%" y2="100%"><stop offset="0%" stop-color="#E0E0E0"/><stop offset="100%" stop-color="#757575"/></linearGradient><linearGradient id="L5005010004387FD1004683EA.grad" x1="50%" y1="0%" x2="50%" y2="100%"><stop offset="0%" stop-color="#4387FD"/><stop offset="100%" stop-color="#4683EA"/></linearGradient><linearGradient id="L611003900000000100100808080100.grad" x1="61%" y1="100%" x2="39%" y2="0%"><stop offset="0%" stop-color="#000000" stop-opacity="1"/><stop offset="100%" stop-color="#808080" stop-opacity="1"/></linearGradient><clipPath id="jw8nw00y2b8.clip"><path d="M 0 15 C 0 6.69 6.69 0 15 0 L 399 0 C 407.31 0 414 6.69 414 15 L 414 813 C 414 821.31 407.31 828 399 828 L 15 828 C 6.69 828 0 821.31 0 813 Z" stroke="hsla(0,0%,100%,1)" stroke-width="1" transform="translate(0 0)"/></clipPath><clipPath id="jw8nwu5f2en.clip"><path d="M 480 947.0445 C 480 966 463.5 986 440.1188 986 L 40.1346 986 C 10 986 0 960 0 949.9712 L 0 39.7345 C 0 16 20 0 39.7865 0 L 130.3007 0 C 139.25 0 145 7.75 145 14.1357 L 145 14 C 145 30.62 158.38 44 175 44 L 305 44 C 321.62 44 335 30.62 335 14 L 335 13.8857 C 335 8.75 340 0 349.9493 0 L 439.7751 0 C 464.5 0 480 20.5 480 39.9367 Z" stroke="hsla(0,0%,100%,1)" stroke-width="1" transform="translate(0 0)"/></clipPath><clipPath id="jw8nxjem3h1.clip"><path d="M 0 40 C 0 17.84 17.84 0 40 0 L 374 0 C 396.16 0 414 17.84 414 40 L 414 834 C 414 856.16 396.16 874 374 874 L 40 874 C 17.84 874 0 856.16 0 834 Z" stroke="hsla(0,0%,100%,1)" transform="translate(1.1517835812563817 3)"/></clipPath><clipPath id="jw8ny4f43i0.clip"><path d="M 0 40 C 0 17.84 17.84 0 40 0 L 440 0 C 462.16 0 480 17.84 480 40 L 480 973 C 480 995.16 462.16 1013 440 1013 L 40 1013 C 17.84 1013 0 995.16 0 973 Z" stroke="hsla(0,0%,100%,1)" stroke-width="1" transform="translate(6 8.642899999999997)"/></clipPath><clipPath id="jw8o1udg4wt.clip"><path d="M 43.54657451923149 0 L 149.36523437499966 0 C 180.34197716346247 0 180.34197716346247 30.062344341105906 206.68347355769168 30.062344341105906 C 233.02496995192348 30.062344341105906 233.02496995192348 0 264.0775615985576 0 L 375.48191105769286 0 C 390.62403846153893 0 396.11487379807704 1.5754000230444005 401.65063100961584 4.533742296454201 C 407.18638822115395 7.4920414082198015 411.530851862981 11.833239608706302 414.4913762019235 17.364835963593304 C 417.45190054086584 22.896389156836005 419.02848557692346 28.383140563119007 419.02848557692346 43.51388664745901 L 419.02848557692346 839.0223144317017 C 419.02848557692346 854.1529741927511 417.45190054086584 859.6397687606808 414.4913762019235 865.171365115567 C 411.530851862981 870.7028751471631 407.18638822115395 875.0440733476512 401.65063100961584 878.0024587827053 C 396.11487379807704 880.9607578944717 390.62403846153893 882.5361579175152 375.48191105769286 882.5361579175152 L 43.54657451923149 882.5361579175152 C 28.404447115384198 882.5361579175152 22.913611778847397 880.9607578944717 17.377854567307896 878.0024587827053 C 11.842097355768498 875.0440733476512 7.497633713942099 870.7028751471631 4.537109374999999 865.171365115567 C 1.5765850360578997 859.6397687606808 0 854.1529741927511 0 839.0223144317017 L 0 43.51388664745901 C 0 28.383140563119007 1.5765850360578997 22.896389156836005 4.537109374999999 17.364835963593304 C 7.497633713942099 11.833239608706302 11.842097355768498 7.4920414082198015 17.377854567307896 4.533742296454201 C 22.913611778847397 1.5754000230444005 28.404447115384198 0 43.54657451923149 0 Z" fill="hsla(0,0%,20%,1)" stroke="none" transform="translate(0 0)"/></clipPath><clipPath id="jw8pi2jcloi.clip"><path d="M 335.8927317333333 814.0000000000001 C 362.464 814.0000000000001 376 790.972109720438 376 774.0900697557959 L 376 39.9095124786729 C 376 15.5326649749132 354.944 0.0138998239484 336.1203370666667 0.0138998239484 L 298.2586410666667 0.0138998239484 C 296.288 0.0138998239484 292.7786666666667 2.3917210306186 292.7943082666667 5.7074945327155 C 292.7786666666667 7.1475636899658 292.7786666666667 8.3184020911954 292.7786666666667 10.0259999134094 C 292.7786666666667 21.1194284391008 283.83488 30.0503002153345 272.7253333333333 30.0503002153345 L 103.2746666666667 30.0503002153345 C 92.16512 30.0503002153345 83.2213333333333 21.1194284391008 83.2213333333333 10.0259999134094 C 83.2213333333333 7.9584598941353 83.2213333333333 8.5241548630892 83.2320618666667 6.3454783100915 C 83.2213333333333 2.0162597680386 79.8373333333333 0.0138998239484 77.4965077333333 0.0138998239484 L 39.9373162666667 0.0138998239484 C 23.0613333333333 -0.4867151928249 0 12.5290749972763 0 40.0629009198122 L 0 774.0901698787992 C 0 797.9806198322619 19.552 814.0000000000001 40.107168 814.0000000000001 Z" stroke="hsla(0,0%,100%,1)" stroke-width="1" transform="translate(1.6289867642501576 1)"/></clipPath><clipPath id="jw8pmnlrt78.clip"><path d="M 369.8393 895.9999976352831 C 399.096 895.9999976352831 414 870.652297635283 414 852.0696976352831 L 414 43.9298976352831 C 414 17.097397635283 390.816 0.015297635283 370.0899 0.015297635283 L 328.4018 0.015297635283 C 326.232 0.015297635283 322.368 2.632697635283 322.3852 6.282497635283 C 322.368 7.867597635283 322.368 9.156397635283 322.368 11.035997635283 C 322.368 23.246897635283 312.5203 33.0774976352831 300.288 33.0774976352831 L 113.712 33.0774976352831 C 101.4797 33.0774976352831 91.632 23.246897635283 91.632 11.035997635283 C 91.632 8.760197635283 91.632 9.382897635283 91.6438 6.984697635283 C 91.632 2.219397635283 87.906 0.015297635283 85.3286 0.015297635283 L 43.9735 0.015297635283 C 25.392 -0.535702364717 0 13.791197635283 0 44.0986976352831 L 0 852.0697976352831 C 0 878.3668976352831 21.528 895.9999976352831 44.1606 895.9999976352831 Z" stroke="hsla(0,0%,100%,1)" stroke-width="1" transform="translate(0.9199223449481906 1.0000011823585737)"/></clipPath><clipPath id="jw8uzo6nb9b.clip"><rect x="0" y="0" width="480" height="1040" stroke-width="0.2" stroke="none" rx="40" class="" transform="translate(0.999964282226756 1.16666664971126)"/></clipPath><clipPath id="jwpugewnio.clip"><path d="M 0 0 L 375 0 L 375 667 L 0 667 Z" fill="hsla(240,8%,12%,1)" fill-opacity="1" stroke="hsla(0,0%,75%,1)" stroke-linejoin="miter" stroke-width="1" transform="translate(146.49997790527343 1)"/></clipPath><clipPath id="jwpuhbtxk8.clip"><path d="M 0 0 L 414 0 L 414 736 L 0 736 Z" stroke="hsla(0,0%,75%,1)" stroke-linejoin="miter" stroke-width="1" transform="translate(161.99995786132808 1)"/></clipPath><g id="many.end"><path d="M -5 0 L 0 7.5 L 5 0" fill="none"/></g></defs><title xmlns="http://www.w3.org/1999/xhtml">mine logo</title><desc xmlns="http://www.w3.org/1999/xhtml"></desc><svg height="317.4803237915039" id="kqjn8klguv" overflow="visible" v:setup="{&quot;paper&quot;:&quot;CUSTOM&quot;,&quot;unit&quot;:&quot;px&quot;,&quot;scale&quot;:{&quot;from&quot;:1,&quot;to&quot;:1},&quot;width&quot;:&quot;297mm&quot;,&quot;height&quot;:&quot;210mm&quot;}" viewBox="0 0 1122.5197162628174 793.7008094787598" width="449.007886505127"><g id="kr130app1kn" class="NoPrint.cls" transform="translate(70 80)"><rect fill="none" height="100" stroke="none" stroke-width="0" width="100" x="0" y="0"/></g><g id="kr130wd71la" class="NoPrint.cls" transform="translate(492.6408540199765 286.8648014858239)"><path d="M 11.978308187988919 0 C 8.180982056938364 18.203446275661648 4.182162299245148 36.43256587481532 0 54.59716280824572 C 4.219202483433675 36.240257894328494 8.198846238029674 18.094706624762118 11.978308187988919 0 Z" fill="#ffffff00" stroke="none" stroke-width="0.1139"/></g><g id="kr1kar1n1rl" transform="translate(542.4952096939087 375.5222797393799)" class=""><path fill="#00ffd5" d="M 31.7578125 42.65625 L 27.685546875 31.5234375 L 9.814453125 31.5234375 L 5.80078125 42.65625 L 0 42.65625 L 16.2890625 0 L 21.2109375 0 L 37.529296874999986 42.65625 L 31.7578125 42.65625 Z M 18.75 6.943359375 L 11.513671875 26.89453125 L 26.015625 26.89453125 L 18.75 6.943359375 Z" stroke="none"/></g><g id="kr1326wn1m0" class="Group.cls NoPrint.cls" transform="translate(491.2598581314087 331.8504047393799)" v:abox="{&quot;x&quot;:491.2598581314087,&quot;y&quot;:331.8504047393799,&quot;width&quot;:140,&quot;height&quot;:130}" v:symbol="m4THa-4b8yGocLFJNgizJ7" v:formula="{&quot;text&quot;:&quot;&quot;}"><g class="Prim.cls"><g id="kr1326wo1m2" class="NoPrint.cls" transform="translate(0 37.0023)"><path d="M 70 0 C 87.534 0 103.8226 2.6407 116.1041 7.0785 C 130.9018 12.4254 140 20.53 140 27.8685 C 140 35.519 130.3578 44.1263 114.4672 49.6522 C 102.4534 53.8326 86.6442 56.0105 70 56.0105 C 52.935 56.0105 36.7752 53.9634 24.626 49.6063 C 9.2554 44.0921 0 35.3704 0 27.8685 C 0 20.5894 8.687 12.5476 23.2764 7.2089 C 35.6038 2.7005 52.2949 0 70 0 Z" fill="none" stroke="#00d8ff" stroke-width="2.7341"/></g><g id="kr1326wo1m3" class="NoPrint.cls" transform="translate(28.2562 0)"><path d="M 18.6287 51.0173 C 27.3881 35.0754 37.7047 21.5849 47.5033 12.6348 C 59.3088 1.8517 70.5431 -2.3711 76.6002 1.2949 C 82.9125 5.1152 85.2018 18.1836 81.824 35.3917 C 79.2728 48.4021 73.1723 63.8652 64.8574 78.9985 C 56.3321 94.514 46.5699 108.1839 36.905 117.0504 C 24.6753 128.2711 12.8516 132.3319 6.6601 128.584 C 0.652 124.95 -1.6458 113.0321 1.2365 97.0997 C 3.6718 83.6378 9.7835 67.1148 18.6259 51.0169 Z" fill="none" stroke="#00d8ff" stroke-width="2.7341"/></g><g id="kr1326wo1m4" class="NoPrint.cls" transform="translate(28.2954 0.1486)"><path d="M 18.6116 78.8901 C 9.827 62.9659 3.8462 46.8446 1.3524 33.4655 C -1.653 17.3455 0.4718 5.0232 6.5234 1.3438 C 12.8292 -2.4878 24.7598 1.9569 37.2774 13.6227 C 46.7414 22.4419 56.4596 35.7088 64.799 50.8278 C 73.3488 66.3286 79.757 82.03 82.2496 95.2493 C 85.4042 111.9738 82.8486 124.7528 76.665 128.5111 C 70.663 132.158 59.6792 128.297 47.9676 117.7189 C 38.072 108.7844 27.4852 94.9719 18.614 78.8901 Z" fill="none" stroke="#00d8ff" stroke-width="2.7341"/></g></g></g></svg></svg>